PathFileType	4	(X/Y/Z)	 2.2Hz3min.trc
DataRate	CameraRate	NumFrames	NumMarkers	Units	OrigDataRate	OrigDataStartFrame	OrigNumFrames
200	200	9	39	m	200	751	1000
Frame#	Time	C7			LSH			RSH			MAN			RASI			LASI			HIPR			HIPL			RPSI			LPSI			COX			RTHI1			RTHI2			RTHI3			RTHI4			RLKN			RMKN			RSHA1			RSHA2			RSHA3			RSHA4			RHEEL			RMET5			RMET1			RTOE			LTHI1			LTHI2			LTHI3			LTHI4			LLKN			LMKN			LSHA1			LSHA2			LSHA3			LSHA4			LHEEL			LMET5			LMET1			LTOE			
		X1	Y1	Z1	X2	Y2	Z2	X3	Y3	Z3	X4	Y4	Z4	X5	Y5	Z5	X6	Y6	Z6	X7	Y7	Z7	X8	Y8	Z8	X9	Y9	Z9	X10	Y10	Z10	X11	Y11	Z11	X12	Y12	Z12	X13	Y13	Z13	X14	Y14	Z14	X15	Y15	Z15	X16	Y16	Z16	X17	Y17	Z17	X18	Y18	Z18	X19	Y19	Z19	X20	Y20	Z20	X21	Y21	Z21	X22	Y22	Z22	X23	Y23	Z23	X24	Y24	Z24	X25	Y25	Z25	X26	Y26	Z26	X27	Y27	Z27	X28	Y28	Z28	X29	Y29	Z29	X30	Y30	Z30	X31	Y31	Z31	X32	Y32	Z32	X33	Y33	Z33	X34	Y34	Z34	X35	Y35	Z35	X36	Y36	Z36	X37	Y37	Z37	X38	Y38	Z38	X39	Y39	Z39	
751	3.7550	-0.368836	1.448701	-0.550432	-0.313366	1.441742	-0.727427	-0.342997	1.441963	-0.361172	-0.207219	1.403684	-0.542977	-0.229787	0.939395	-0.426221	-0.226547	0.933751	-0.664812	-0.313845	1.004950	-0.379613	-0.296650	0.989289	-0.712713	-0.402022	0.994499	-0.505644	-0.400801	0.995249	-0.593464	-0.399129	1.000034	-0.546841	-0.305049	0.752927	-0.347134	-0.288181	0.696285	-0.339379	-0.225556	0.713420	-0.334340	-0.235438	0.773615	-0.343481	-0.239518	0.434320	-0.359743	-0.212942	0.425651	-0.475874	-0.337046	0.333870	-0.350108	-0.356543	0.299262	-0.364997	-0.300568	0.275899	-0.363965	-0.284637	0.311120	-0.353008	-0.472885	0.088150	-0.467575	-0.332773	0.035075	-0.375220	-0.265479	0.047015	-0.438967	-0.235835	0.035325	-0.430445	-0.314255	0.742610	-0.743503	-0.291168	0.686428	-0.755212	-0.230206	0.706715	-0.762447	-0.244496	0.764479	-0.751913	-0.255651	0.433909	-0.741139	-0.212734	0.427498	-0.626144	-0.354475	0.324018	-0.741868	-0.373504	0.290078	-0.729925	-0.316859	0.263714	-0.738401	-0.304949	0.304391	-0.750288	-0.488654	0.077937	-0.637092	-0.342980	0.036169	-0.740229	-0.278187	0.047775	-0.675445	-0.253197	0.036873	-0.688392	
752	3.7600	-0.369442	1.453420	-0.550353	-0.314224	1.447114	-0.727164	-0.343631	1.446995	-0.361253	-0.208016	1.409256	-0.543147	-0.228275	0.944517	-0.426391	-0.225295	0.938891	-0.665049	-0.312310	1.010364	-0.379663	-0.295893	0.994519	-0.712705	-0.400645	0.999219	-0.505422	-0.399550	0.999829	-0.593235	-0.397844	1.004581	-0.546673	-0.304566	0.757939	-0.347361	-0.288241	0.701113	-0.339769	-0.225435	0.717622	-0.334782	-0.234753	0.777913	-0.343752	-0.242441	0.438455	-0.360276	-0.216024	0.429548	-0.476495	-0.339266	0.337162	-0.350297	-0.358457	0.302266	-0.365095	-0.302253	0.279381	-0.363825	-0.286633	0.314833	-0.353015	-0.472527	0.090426	-0.466437	-0.332480	0.035083	-0.375103	-0.265475	0.047023	-0.438909	-0.235866	0.035318	-0.430552	-0.313552	0.747651	-0.743413	-0.290806	0.691315	-0.755052	-0.229640	0.711129	-0.761814	-0.243566	0.768994	-0.751298	-0.258097	0.437820	-0.740540	-0.215137	0.431116	-0.625539	-0.356256	0.327388	-0.741420	-0.375115	0.293298	-0.729673	-0.318371	0.267212	-0.738389	-0.306647	0.308066	-0.750017	-0.488171	0.080377	-0.637841	-0.342748	0.036244	-0.740212	-0.278163	0.047749	-0.675435	-0.253202	0.036858	-0.688257	
753	3.7650	-0.370052	1.458313	-0.550273	-0.315105	1.452665	-0.726889	-0.344239	1.452189	-0.361331	-0.208944	1.414961	-0.543385	-0.226762	0.949753	-0.426551	-0.224028	0.944201	-0.665261	-0.310683	1.015883	-0.379703	-0.295087	0.999899	-0.712665	-0.399256	1.004136	-0.505147	-0.398284	1.004605	-0.592956	-0.396556	1.009300	-0.546467	-0.304089	0.763122	-0.347571	-0.288309	0.706109	-0.340156	-0.225323	0.721987	-0.335207	-0.234080	0.782407	-0.344013	-0.245375	0.442772	-0.360809	-0.219273	0.433659	-0.477156	-0.341483	0.340647	-0.350462	-0.360376	0.305482	-0.365114	-0.303956	0.283104	-0.363628	-0.288632	0.318797	-0.353004	-0.472119	0.092884	-0.465260	-0.332150	0.035113	-0.374971	-0.265466	0.047025	-0.438836	-0.235904	0.035313	-0.430668	-0.312882	0.752908	-0.743330	-0.290506	0.696398	-0.754887	-0.229149	0.715733	-0.761238	-0.242670	0.773698	-0.750749	-0.260574	0.442034	-0.740040	-0.217584	0.434922	-0.625050	-0.358022	0.331013	-0.741074	-0.376699	0.296765	-0.729538	-0.319863	0.270973	-0.738489	-0.308325	0.311990	-0.749845	-0.487590	0.083104	-0.638696	-0.342486	0.036340	-0.740209	-0.278141	0.047724	-0.675439	-0.253200	0.036846	-0.688112	
754	3.7700	-0.370666	1.463343	-0.550192	-0.316004	1.458363	-0.726601	-0.344838	1.457529	-0.361406	-0.210006	1.420743	-0.543688	-0.225258	0.955075	-0.426703	-0.222758	0.949665	-0.665452	-0.308971	1.021493	-0.379729	-0.294214	1.005422	-0.712581	-0.397868	1.009218	-0.504841	-0.397019	1.009565	-0.592654	-0.395266	1.014161	-0.546225	-0.303620	0.768456	-0.347757	-0.288382	0.711264	-0.340532	-0.225223	0.726512	-0.335618	-0.233428	0.787052	-0.344256	-0.248303	0.447259	-0.361330	-0.222668	0.437960	-0.477837	-0.343694	0.344326	-0.350603	-0.362291	0.308937	-0.365032	-0.305669	0.287038	-0.363375	-0.290639	0.322950	-0.352955	-0.471646	0.095514	-0.464039	-0.331786	0.035172	-0.374819	-0.265464	0.047034	-0.438757	-0.235954	0.035302	-0.430804	-0.312267	0.758341	-0.743247	-0.290287	0.701658	-0.754729	-0.228750	0.720495	-0.760737	-0.241846	0.778562	-0.750284	-0.263028	0.446529	-0.739636	-0.220038	0.438935	-0.624659	-0.359760	0.334860	-0.740828	-0.378244	0.300449	-0.729515	-0.321319	0.274973	-0.738703	-0.309968	0.316134	-0.749782	-0.486896	0.086095	-0.639639	-0.342171	0.036492	-0.740207	-0.278114	0.047704	-0.675464	-0.253195	0.036828	-0.687963	
755	3.7750	-0.371284	1.468480	-0.550105	-0.316901	1.464167	-0.726298	-0.345424	1.462982	-0.361478	-0.211182	1.426579	-0.544046	-0.223777	0.960464	-0.426843	-0.221483	0.955250	-0.665605	-0.307187	1.027175	-0.379734	-0.293239	1.011076	-0.712445	-0.396489	1.014437	-0.504510	-0.395755	1.014682	-0.592354	-0.393975	1.019144	-0.545962	-0.303168	0.773908	-0.347922	-0.288453	0.716547	-0.340886	-0.225137	0.731181	-0.336015	-0.232802	0.791847	-0.344493	-0.251223	0.451890	-0.361828	-0.226168	0.442432	-0.478525	-0.345882	0.348202	-0.350681	-0.364201	0.312581	-0.364863	-0.307390	0.291147	-0.363050	-0.292665	0.327290	-0.352841	-0.471101	0.098300	-0.462766	-0.331381	0.035278	-0.374651	-0.265463	0.047051	-0.438673	-0.236024	0.035293	-0.430955	-0.311718	0.763930	-0.743163	-0.290158	0.707068	-0.754577	-0.228446	0.725396	-0.760323	-0.241102	0.783564	-0.749909	-0.265431	0.451279	-0.739319	-0.222470	0.443180	-0.624347	-0.361462	0.338898	-0.740668	-0.379743	0.304318	-0.729587	-0.322733	0.279180	-0.739026	-0.311574	0.320470	-0.749818	-0.486080	0.089331	-0.640665	-0.341801	0.036695	-0.740232	-0.278078	0.047685	-0.675516	-0.253186	0.036811	-0.687809	
756	3.7800	-0.371902	1.473693	-0.550014	-0.317789	1.470045	-0.725979	-0.345995	1.468521	-0.361547	-0.212203	1.432510	-0.544303	-0.222322	0.965897	-0.426973	-0.220209	0.960937	-0.665720	-0.305356	1.032924	-0.379711	-0.292150	1.016854	-0.712274	-0.395124	1.019763	-0.504175	-0.394493	1.019940	-0.592066	-0.392694	1.024234	-0.545689	-0.302736	0.779465	-0.348068	-0.288537	0.721932	-0.341214	-0.225075	0.735976	-0.336394	-0.232214	0.796755	-0.344718	-0.254141	0.456648	-0.362293	-0.229714	0.447054	-0.479197	-0.348052	0.352232	-0.350711	-0.366097	0.316391	-0.364605	-0.309110	0.295412	-0.362648	-0.294713	0.331794	-0.352649	-0.470471	0.101217	-0.461444	-0.330957	0.035421	-0.374469	-0.265465	0.047074	-0.438575	-0.236113	0.035290	-0.431113	-0.311240	0.769644	-0.743075	-0.290115	0.712602	-0.754425	-0.228238	0.730419	-0.760000	-0.240450	0.788688	-0.749627	-0.267779	0.456232	-0.739077	-0.224854	0.447668	-0.624091	-0.363131	0.343094	-0.740581	-0.381198	0.308344	-0.729737	-0.324100	0.283566	-0.739449	-0.313145	0.324980	-0.749949	-0.485112	0.092763	-0.641746	-0.341374	0.036947	-0.740289	-0.278035	0.047671	-0.675600	-0.253173	0.036796	-0.687666	
757	3.7850	-0.372515	1.478951	-0.549923	-0.318657	1.475965	-0.725644	-0.346551	1.474119	-0.361614	-0.213048	1.438523	-0.544447	-0.220899	0.971356	-0.427090	-0.218936	0.966691	-0.665790	-0.303496	1.038706	-0.379658	-0.290932	1.022748	-0.712092	-0.393777	1.025175	-0.503850	-0.393235	1.025310	-0.591806	-0.391425	1.029403	-0.545422	-0.302339	0.785090	-0.348201	-0.288646	0.727386	-0.341521	-0.225042	0.740864	-0.336752	-0.231674	0.801762	-0.344939	-0.257070	0.461505	-0.362724	-0.233229	0.451804	-0.479832	-0.350209	0.356375	-0.350686	-0.367973	0.320318	-0.364273	-0.310816	0.299803	-0.362169	-0.296783	0.336437	-0.352377	-0.469732	0.104218	-0.460035	-0.330516	0.035604	-0.374264	-0.265466	0.047099	-0.438468	-0.236214	0.035296	-0.431272	-0.310833	0.775456	-0.742979	-0.290149	0.718240	-0.754279	-0.228125	0.735557	-0.759773	-0.239878	0.793920	-0.749438	-0.270072	0.461333	-0.738896	-0.227190	0.452403	-0.623866	-0.364768	0.347421	-0.740554	-0.382614	0.312506	-0.729942	-0.325423	0.288099	-0.739968	-0.314691	0.329641	-0.750175	-0.483992	0.096356	-0.642880	-0.340918	0.037220	-0.740391	-0.277991	0.047661	-0.675718	-0.253162	0.036783	-0.687527	
758	3.7900	-0.373118	1.484225	-0.549827	-0.319493	1.481893	-0.725294	-0.347087	1.479747	-0.361674	-0.213735	1.444613	-0.544487	-0.219512	0.976819	-0.427196	-0.217667	0.972489	-0.665822	-0.301644	1.044513	-0.379586	-0.289583	1.028744	-0.711924	-0.392458	1.030643	-0.503553	-0.391990	1.030775	-0.591586	-0.390172	1.034641	-0.545170	-0.301986	0.790744	-0.348328	-0.288782	0.732883	-0.341803	-0.225051	0.745819	-0.337092	-0.231189	0.806806	-0.345144	-0.260020	0.466441	-0.363124	-0.236647	0.456640	-0.480409	-0.352342	0.360621	-0.350572	-0.369824	0.324327	-0.363880	-0.312505	0.304261	-0.361609	-0.298840	0.341116	-0.352006	-0.468860	0.107286	-0.458513	-0.330034	0.035809	-0.373988	-0.265472	0.047135	-0.438343	-0.236322	0.035306	-0.431425	-0.310494	0.781348	-0.742884	-0.290254	0.723971	-0.754148	-0.228096	0.740791	-0.759637	-0.239399	0.799236	-0.749335	-0.272316	0.466538	-0.738769	-0.229485	0.457366	-0.623655	-0.366376	0.351857	-0.740570	-0.383994	0.316778	-0.730182	-0.326704	0.292753	-0.740577	-0.316218	0.334423	-0.750494	-0.482716	0.100081	-0.644046	-0.340424	0.037532	-0.740554	-0.277939	0.047662	-0.675880	-0.253153	0.036777	-0.687394	
759	3.7950	-0.373712	1.489487	-0.549729	-0.320292	1.487795	-0.724928	-0.347600	1.485381	-0.361727	-0.214276	1.450743	-0.544431	-0.218167	0.982273	-0.427290	-0.216407	0.978297	-0.665820	-0.299821	1.050326	-0.379509	-0.288109	1.034821	-0.711787	-0.391174	1.036146	-0.503296	-0.390757	1.036315	-0.591407	-0.388940	1.039931	-0.544953	-0.301688	0.796396	-0.348460	-0.288961	0.738394	-0.342071	-0.225111	0.750795	-0.337406	-0.230763	0.811869	-0.345335	-0.262987	0.471433	-0.363496	-0.239896	0.461515	-0.480920	-0.354451	0.364935	-0.350380	-0.371641	0.328374	-0.363432	-0.314165	0.308772	-0.360963	-0.300875	0.345837	-0.351546	-0.467855	0.110417	-0.456887	-0.329523	0.036041	-0.373691	-0.265469	0.047187	-0.438197	-0.236432	0.035325	-0.431557	-0.310212	0.787303	-0.742788	-0.290418	0.729769	-0.754035	-0.228136	0.746105	-0.759583	-0.238992	0.804632	-0.749304	-0.274534	0.471814	-0.738678	-0.231749	0.462535	-0.623442	-0.367956	0.356374	-0.740612	-0.385334	0.321127	-0.730438	-0.327946	0.297499	-0.741261	-0.317731	0.339302	-0.750887	-0.481286	0.103894	-0.645239	-0.339898	0.037882	-0.740776	-0.277884	0.047679	-0.676082	-0.253148	0.036782	-0.687274	
